grf
version=1
nRows=18
nColumns=46
inDegrees=yes
endheader
time	ground_force_1_vx	ground_force_1_vy	ground_force_1_vz	ground_force_1_px	ground_force_1_py	ground_force_1_pz	ground_moment_1_mx	ground_moment_1_my	ground_moment_1_mz	ground_force_2_vx	ground_force_2_vy	ground_force_2_vz	ground_force_2_px	ground_force_2_py	ground_force_2_pz	ground_moment_2_mx	ground_moment_2_my	ground_moment_2_mz	ground_force_3_vx	ground_force_3_vy	ground_force_3_vz	ground_force_3_px	ground_force_3_py	ground_force_3_pz	ground_moment_3_mx	ground_moment_3_my	ground_moment_3_mz	ground_force_4_vx	ground_force_4_vy	ground_force_4_vz	ground_force_4_px	ground_force_4_py	ground_force_4_pz	ground_moment_4_mx	ground_moment_4_my	ground_moment_4_mz	ground_force_5_vx	ground_force_5_vy	ground_force_5_vz	ground_force_5_px	ground_force_5_py	ground_force_5_pz	ground_moment_5_mx	ground_moment_5_my	ground_moment_5_mz
2.422500	0.000000	0.000000	0.000000	0.000000	0.000000	0.000000	0.000000	0.000000	0.000000	0.000000	0.000000	0.000000	0.000000	0.000000	0.000000	0.000000	0.000000	0.000000	0.000000	0.000000	0.000000	0.000000	0.000000	0.000000	0.000000	0.000000	0.000000	24.339598	773.217751	-179.018030	0.177352	0.000000	-0.842391	0.000000	3.580754	0.000000	8.197602	744.995960	195.952564	0.219951	0.000000	-1.601823	0.000000	-6.549590	-0.000000
2.423000	0.000000	0.000000	0.000000	0.000000	0.000000	0.000000	0.000000	0.000000	0.000000	0.000000	0.000000	0.000000	0.000000	0.000000	0.000000	0.000000	0.000000	0.000000	0.000000	0.000000	0.000000	0.000000	0.000000	0.000000	0.000000	0.000000	0.000000	24.340937	772.596540	-179.201731	0.177335	0.000000	-0.842375	0.000000	3.582041	0.000000	8.107001	744.504947	196.042440	0.219955	0.000000	-1.601834	0.000000	-6.541614	-0.000000
2.423500	0.000000	0.000000	0.000000	0.000000	0.000000	0.000000	0.000000	0.000000	0.000000	0.000000	0.000000	0.000000	0.000000	0.000000	0.000000	0.000000	0.000000	0.000000	0.000000	0.000000	0.000000	0.000000	0.000000	0.000000	0.000000	0.000000	0.000000	24.341631	771.975281	-179.384256	0.177319	0.000000	-0.842359	0.000000	3.583405	0.000000	8.015899	744.016652	196.131149	0.219960	0.000000	-1.601844	0.000000	-6.533602	-0.000000
2.424000	0.000000	0.000000	0.000000	0.000000	0.000000	0.000000	0.000000	0.000000	0.000000	0.000000	0.000000	0.000000	0.000000	0.000000	0.000000	0.000000	0.000000	0.000000	0.000000	0.000000	0.000000	0.000000	0.000000	0.000000	0.000000	0.000000	0.000000	24.341861	771.354122	-179.565528	0.177302	0.000000	-0.842344	0.000000	3.584853	0.000000	7.924403	743.531106	196.218676	0.219964	0.000000	-1.601854	0.000000	-6.525548	-0.000000
2.424500	0.000000	0.000000	0.000000	0.000000	0.000000	0.000000	0.000000	0.000000	0.000000	0.000000	0.000000	0.000000	0.000000	0.000000	0.000000	0.000000	0.000000	0.000000	0.000000	0.000000	0.000000	0.000000	0.000000	0.000000	0.000000	0.000000	0.000000	24.341806	770.733198	-179.745476	0.177285	0.000000	-0.842329	0.000000	3.586392	0.000000	7.832617	743.048353	196.305013	0.219968	0.000000	-1.601864	0.000000	-6.517448	-0.000000
2.425000	0.000000	0.000000	0.000000	0.000000	0.000000	0.000000	0.000000	0.000000	0.000000	0.000000	0.000000	0.000000	0.000000	0.000000	0.000000	0.000000	0.000000	0.000000	0.000000	0.000000	0.000000	0.000000	0.000000	0.000000	0.000000	0.000000	0.000000	24.341647	770.112634	-179.924036	0.177267	0.000000	-0.842314	0.000000	3.588023	0.000000	7.740648	742.568438	196.390161	0.219971	0.000000	-1.601873	0.000000	-6.509301	-0.000000
2.425500	0.000000	0.000000	0.000000	0.000000	0.000000	0.000000	0.000000	0.000000	0.000000	0.000000	0.000000	0.000000	0.000000	0.000000	0.000000	0.000000	0.000000	0.000000	0.000000	0.000000	0.000000	0.000000	0.000000	0.000000	0.000000	0.000000	0.000000	24.341563	769.492558	-180.101148	0.177250	0.000000	-0.842300	0.000000	3.589750	0.000000	7.648594	742.091407	196.474122	0.219974	0.000000	-1.601883	0.000000	-6.501103	-0.000000
2.426000	0.000000	0.000000	0.000000	0.000000	0.000000	0.000000	0.000000	0.000000	0.000000	0.000000	0.000000	0.000000	0.000000	0.000000	0.000000	0.000000	0.000000	0.000000	0.000000	0.000000	0.000000	0.000000	0.000000	0.000000	0.000000	0.000000	0.000000	24.341731	768.873097	-180.276754	0.177232	0.000000	-0.842286	0.000000	3.591571	0.000000	7.556556	741.617313	196.556902	0.219977	0.000000	-1.601893	0.000000	-6.492852	-0.000000
2.426500	0.000000	0.000000	0.000000	0.000000	0.000000	0.000000	0.000000	0.000000	0.000000	0.000000	0.000000	0.000000	0.000000	0.000000	0.000000	0.000000	0.000000	0.000000	0.000000	0.000000	0.000000	0.000000	0.000000	0.000000	0.000000	0.000000	0.000000	24.342326	768.254371	-180.450798	0.177213	0.000000	-0.842273	0.000000	3.593486	0.000000	7.464633	741.146217	196.638511	0.219980	0.000000	-1.601903	-0.000000	-6.484548	-0.000000
2.427000	0.000000	0.000000	0.000000	0.000000	0.000000	0.000000	0.000000	0.000000	0.000000	0.000000	0.000000	0.000000	0.000000	0.000000	0.000000	0.000000	0.000000	0.000000	0.000000	0.000000	0.000000	0.000000	0.000000	0.000000	0.000000	0.000000	0.000000	24.343514	767.636484	-180.623234	0.177194	0.000000	-0.842260	0.000000	3.595495	0.000000	7.372922	740.678197	196.718964	0.219982	0.000000	-1.601913	-0.000000	-6.476189	-0.000000
2.427500	0.000000	0.000000	0.000000	0.000000	0.000000	0.000000	0.000000	0.000000	0.000000	0.000000	0.000000	0.000000	0.000000	0.000000	0.000000	0.000000	0.000000	0.000000	0.000000	0.000000	0.000000	0.000000	0.000000	0.000000	0.000000	0.000000	0.000000	24.345457	767.019519	-180.794024	0.177175	0.000000	-0.842247	0.000000	3.597597	0.000000	7.281525	740.213343	196.798285	0.219983	0.000000	-1.601922	-0.000000	-6.467769	-0.000000
2.428000	0.000000	0.000000	0.000000	0.000000	0.000000	0.000000	0.000000	0.000000	0.000000	0.000000	0.000000	0.000000	0.000000	0.000000	0.000000	0.000000	0.000000	0.000000	0.000000	0.000000	0.000000	0.000000	0.000000	0.000000	0.000000	0.000000	0.000000	24.348312	766.403534	-180.963141	0.177155	0.000000	-0.842235	0.000000	3.599795	0.000000	7.190542	739.751746	196.876510	0.219985	0.000000	-1.601932	-0.000000	-6.459286	-0.000000
2.428500	0.000000	0.000000	0.000000	0.000000	0.000000	0.000000	0.000000	0.000000	0.000000	0.000000	0.000000	0.000000	0.000000	0.000000	0.000000	0.000000	0.000000	0.000000	0.000000	0.000000	0.000000	0.000000	0.000000	0.000000	0.000000	0.000000	0.000000	24.352231	765.788569	-181.130568	0.177135	0.000000	-0.842223	0.000000	3.602088	0.000000	7.100069	739.293497	196.953682	0.219986	0.000000	-1.601942	-0.000000	-6.450732	-0.000000
2.429000	0.000000	0.000000	0.000000	0.000000	0.000000	0.000000	0.000000	0.000000	0.000000	0.000000	0.000000	0.000000	0.000000	0.000000	0.000000	0.000000	0.000000	0.000000	0.000000	0.000000	0.000000	0.000000	0.000000	0.000000	0.000000	0.000000	0.000000	24.357366	765.174639	-181.296297	0.177115	0.000000	-0.842212	0.000000	3.604474	0.000000	7.010202	738.838678	197.029855	0.219986	0.000000	-1.601952	-0.000000	-6.442099	-0.000000
2.429500	0.000000	0.000000	0.000000	0.000000	0.000000	0.000000	0.000000	0.000000	0.000000	0.000000	0.000000	0.000000	0.000000	0.000000	0.000000	0.000000	0.000000	0.000000	0.000000	0.000000	0.000000	0.000000	0.000000	0.000000	0.000000	0.000000	0.000000	24.363857	764.561747	-181.460330	0.177094	0.000000	-0.842201	0.000000	3.606953	0.000000	6.921026	738.387365	197.105079	0.219986	0.000000	-1.601962	-0.000000	-6.433379	-0.000000
2.430000	0.000000	0.000000	0.000000	0.000000	0.000000	0.000000	0.000000	0.000000	0.000000	0.000000	0.000000	0.000000	0.000000	0.000000	0.000000	0.000000	0.000000	0.000000	0.000000	0.000000	0.000000	0.000000	0.000000	0.000000	0.000000	0.000000	0.000000	24.371835	763.949883	-181.622678	0.177073	0.000000	-0.842190	0.000000	3.609522	0.000000	6.832624	737.939621	197.179407	0.219986	0.000000	-1.601971	-0.000000	-6.424563	-0.000000
2.430500	0.000000	0.000000	0.000000	0.000000	0.000000	0.000000	0.000000	0.000000	0.000000	0.000000	0.000000	0.000000	0.000000	0.000000	0.000000	0.000000	0.000000	0.000000	0.000000	0.000000	0.000000	0.000000	0.000000	0.000000	0.000000	0.000000	0.000000	24.381417	763.339039	-181.783354	0.177051	0.000000	-0.842180	0.000000	3.612181	0.000000	6.745063	737.495501	197.252887	0.219985	0.000000	-1.601981	-0.000000	-6.415643	-0.000000
2.431000	0.000000	0.000000	0.000000	0.000000	0.000000	0.000000	0.000000	0.000000	0.000000	0.000000	0.000000	0.000000	0.000000	0.000000	0.000000	0.000000	0.000000	0.000000	0.000000	0.000000	0.000000	0.000000	0.000000	0.000000	0.000000	0.000000	0.000000	24.392701	762.729206	-181.942375	0.177029	0.000000	-0.842170	0.000000	3.614929	0.000000	6.658401	737.055049	197.325575	0.219984	0.000000	-1.601991	-0.000000	-6.406615	-0.000000
